<?xml version="1.0" standalone="no"?>
<svg xmlns="http://www.w3.org/2000/svg" height="1920pt" preserveAspectRatio="xMidYMid meet" viewBox="0 0 1523 1920" width="1523pt">
  <path d="m275 19119c-147-24-206-90-160-178 61-120 382-280 1000-499 282-100 845-277 1245-391 120-34 108-37-75-16-624 69-1327 107-1620 86-303-22-424-65-441-157-24-127 227-258 799-420 318-90 884-221 1257-290 80-15 148-30 153-33 4-4-53-15-125-25-484-66-976-171-1278-272-381-128-563-284-520-446 42-156 243-234 655-253 223-10 711 22 1047 70 57 8 111 15 122 15 10 0-46-39-125-86-366-220-744-485-899-631-142-133-174-212-110-267 49-41 101-51 265-50 153 1 284 16 550 60 131 22 462 88 550 109 27 7 24 1-40-66-280-294-486-589-502-718-18-151 136-183 393-81 96 38 321 151 428 214 43 25 76 41 73 34s-24-53-45-103c-109-248-155-468-121-588 25-91 129-142 246-118 115 23 234 93 387 226l89 78-6-39c-14-90-19-351-8-409 16-85 58-164 101-186 102-55 242 4 420 178l86 82 12-147c30-374 132-530 321-491 98 20 191 75 323 191l77 68 11-42c55-213 108-350 169-438 20-30 60-70 87-88 47-32 53-34 124-30 91 4 167 38 275 122 38 30 71 54 72 53 1-2 9-38 18-82 34-166 114-278 240-341 68-34 79-36 147-33 61 4 88 11 149 41 41 20 102 60 136 87l63 51 6-28c27-123 67-217 111-264 64-67 224-95 365-64 41 9 110 34 152 56l78 40-34-61c-126-223-335-447-550-586-161-104-309-166-548-228-91-24-196-55-235-70-169-65-910-109-1445-87-129 6-237 9-239 7-6-7 385-194 499-238 63-24 171-63 240-85 433-140 834-176 1148-102 46 11 86 20 88 20 9 0-59-91-115-154-248-279-700-571-1186-766-1065-428-2290-484-3570-164-197 49-273 70-413 116-51 16-95 28-98 26-2-3 51-59 119-125 407-396 899-672 1512-848 350-101 730-158 1145-173l185-7-80-49c-167-103-445-295-634-436-1190-893-1951-1933-2160-2951-31-149-51-321-53-464-3-127-3-130 19-133 18-3 24 4 33 40 94 373 334 861 607 1236 436 598 985 1064 1596 1356 83 40 161 76 172 80s-14-24-55-61c-823-743-1331-1411-1660-2185-73-169-165-440-214-628-188-718-210-1510-65-2385 32-193 100-519 111-532 12-15 44-17 52-4 3 5 8 159 10 342 7 536 48 918 147 1376 151 696 435 1363 834 1963 135 204 458 620 471 608 2-2-3-46-11-98-69-464-92-1080-55-1521 80-952 355-1766 841-2484 615-910 1544-1579 2634-1899 704-206 1488-246 2165-110 135 27 512 126 505 132-2 3-118 8-257 13-228 8-575 33-585 42-1 2 41 12 94 21 255 45 573 139 798 236 310 133 549 287 759 490 163 157 262 287 371 480 26 47 59 105 73 130l26 45-60-52c-32-28-72-66-89-83-40-43-222-202-312-273-420-332-939-568-1468-666-229-43-369-55-650-55-284-1-399 8-640 50-191 32-229 45-390 129-413 215-723 443-1060 780-485 483-869 1103-1079 1740-64 191-126 464-126 549v32l58-54c293-274 697-355 1117-225 70 22 349 152 342 160-2 1-48 7-103 13-526 58-900 316-1134 783-108 216-177 453-216 742-25 182-25 594 0 795 87 715 314 1352 699 1958l72 113 265 213c488 393 847 713 1186 1057 369 376 602 665 770 956 60 104 140 223 150 223 2 0 1-13-2-29-5-23-2-32 14-40 18-10 33-1 119 75 199 176 284 230 554 354 964 444 1667 1117 1923 1841l27 75 67 2c101 3 208 39 285 96 67 49 130 179 157 322l12 61 72-72c49-49 94-82 141-106 62-30 78-34 150-34 63 1 90 6 126 23 145 72 218 217 219 435v88l62-50c105-85 233-141 324-141 54 0 136 32 170 67 62 61 80 190 49 350-8 43-15 79-15 80s24-14 52-33c71-46 195-93 267-100 124-13 225 41 270 146 44 103 46 298 5 493-7 37-14 70-14 71 0 2 33-14 74-35 130-68 248-84 326-44 39 20 96 87 110 130 19 58 8 195-24 290-31 91-115 271-169 360-20 32-35 60-34 62 2 1 54-16 117-38 260-91 444-116 543-71 39 17 51 29 69 68 18 42 19 53 9 100-13 55-57 135-124 224-58 76-272 287-395 390-56 46-100 85-99 85 1 1 63-6 137-16 233-30 547-44 691-31 167 15 247 41 304 96 41 39 45 47 45 90 0 61-16 90-83 153-108 103-339 228-642 348-168 67-203 83-155 72 14-3 117-13 230-23 252-20 612-15 730 11 143 31 248 98 266 170 53 210-323 420-1121 626l-150 38 95 1c52 1 106 3 120 5s126 6 250 9c408 11 833 46 1109 91 369 62 541 144 541 260 0 248-755 369-2755 440-236 9-608 22-825 30-507 18-649 8-849-60-108-36-178-80-262-164-226-226-251-547-93-1230 88-380 109-561 101-856-12-472-141-858-405-1212-73-98-276-304-364-372l-57-43-157 148c-182 174-264 272-311 370-38 80-59 183-49 239 10 51 67 110 142 146 103 49 367 99 523 99 67 0 81 7 81 40 0 24-20 47-112 130-274 250-492 377-753 442-74 18-119 22-250 23-182 0-230-10-351-75-91-48-148-60-287-60-120 0-240 22-337 60-84 33-190 88-243 127-57 40-90 41-95 2-2-20 14-42 90-115 109-105 201-173 307-226 87-44 74-48-64-19-146 30-297 96-445 195-88 59-99 63-118 44-21-21-13-44 44-124 103-145 261-287 389-349 31-15 54-29 53-31-2-1-51 7-110 18-58 12-113 18-122 15-57-22 36-106 219-197 119-59 251-100 325-100 35 0 36-1 52-64 9-35 44-135 78-221 33-87 70-190 80-229 46-164 13-275-110-367-47-35-50-36-101-28-241 38-863 279-1284 499-528 274-893 548-1110 835-64 83-149 263-177 370-21 81-23 112-23 305 1 229 3 245 76 620 62 319 75 513 43 668-20 102-90 245-146 299-115 112-393 236-848 376-981 304-2616 620-3623 702-199 16-538 18-622 4z" transform="matrix(.1 0 0 -.1 0 1920)" fill="#AC61DA" stroke="none" stroke-width="2" vector-effect="non-scaling-stroke"/>
</svg>
