<?xml version="1.0" standalone="no"?>
<svg xmlns="http://www.w3.org/2000/svg" height="1410pt" preserveAspectRatio="xMidYMid meet" viewBox="0 0 1920 1410" width="1920pt">
  <path d="m2010 14094c-642-59-1157-284-1576-687-123-118-318-342-362-417-32-53-46-154-25-172 21-17 154-3 293 31 169 42 190 41 114-5-93-56-212-151-238-189-13-19-11-20 48-17 33 1 187 12 341 24 192 16 364 23 545 23 307 0 312-1 520-94 129-57 137-62 194-128 210-245 536-827 718-1283 293-731 459-1554 517-2561 6-95 18-316 26-489 26-526 55-805 111-1071 175-832 797-1870 1522-2542 423-393 846-661 1382-877 243-98 420-162 1080-392 847-294 1205-450 1550-674 271-176 395-233 543-248 101-10 104-4 51 123-70 169-184 343-336 514-38 42-66 77-61 77 35-1 229-78 398-159 144-69 297-157 632-364 352-218 564-337 597-337 8 0 27 11 43 24l27 24-43 100c-57 133-141 275-253 425-107 142-401 441-635 646-84 74-153 137-153 141 0 12 216 78 310 95 212 38 533 12 861-70 507-127 1079-395 1644-770 333-221 524-365 1145-860 542-432 757-592 1101-823 782-523 1516-846 2274-1002 243-49 330-62 620-90 142-13 273-20 370-18 148 3 149 3 105 18-44 14-44 15-16 20 26 4 17 10-70 44-315 123-1000 467-1194 600-66 45-250 220-250 238 0 4 19 1 43-6 23-8 65-18 92-23 28-6 102-23 165-38 63-14 192-40 285-56 94-16 269-49 390-74 288-60 482-91 690-110 94-9 215-26 270-38 119-26 364-31 428-9 20 8 37 16 37 18 0 36-113 105-325 200-60 26-180 86-266 131-86 46-239 119-341 162-278 119-386 176-825 434-125 74-331 192-458 262-443 245-609 358-886 602-120 105-182 177-359 413-69 92-170 210-227 267-56 57-90 95-75 86s77-49 137-88c125-82 243-149 395-225 243-122 375-201 725-440 192-131 348-199 494-217 53-6 53-6 46 18-25 82-113 199-326 430-166 179-178 196-538 739-274 414-388 576-516 735-82 102-423 451-560 571-564 497-1254 894-1970 1132-416 139-630 180-1205 232-780 71-1137 158-1609 395-324 162-608 483-561 633 17 52 82 116 150 146 85 38 190 48 515 49 310 2 355-3 600-59 143-33 237-66 309-110 61-36 75-35 76 9 0 30-86 189-171 317-83 124-196 247-366 397-99 89-127 142-100 198 21 44 93 79 217 105 135 28 430 28 588 0 125-23 297-73 435-126 141-55 436-203 597-299 322-193 456-242 554-201 57 24 65 90 21 176-68 133-382 509-598 717-219 210-358 301-822 541-165 85-302 157-305 159-9 10 202-7 336-27 466-68 869-204 1709-573 378-166 523-227 720-304 189-74 462-165 482-161 30 6 25 49-13 107-300 452-841 1039-1324 1435-52 43-99 82-103 86-32 29 278 140 393 140 154 0 341-60 519-167 257-154 441-313 1006-873 672-665 825-789 1276-1030 39-21 40 5 4 131-138 481-350 919-632 1307-278 382-688 796-1161 1176-67 54-121 99-120 100 2 1 84-1 183-5 235-8 247-13 548-208 83-54 253-154 377-221 534-292 765-433 1066-651 371-269 636-525 890-859 224-295 404-439 468-374 42 41-4 235-142 600-108 282-163 390-337 654-239 362-601 796-1064 1275-117 121-247 254-289 295-43 41-210 206-372 365-486 478-709 661-1225 1004-875 582-1779 1019-2560 1239-608 171-1133 232-1772 203-436-19-646-63-771-159-21-15-91-48-157-72-241-88-500-233-678-379-250-204-467-492-576-767-70-174-102-324-176-814-49-325-98-508-186-682-112-225-240-400-429-588-473-473-942-526-1321-150-198 196-346 449-604 1030-65 146-139 309-166 363-160 319-339 546-543 691-43 31-76 56-73 56 2 0 38-15 78-34 80-36 449-186 539-219 120-43 575-194 578-192 4 4-343 436-457 570-181 211-345 368-606 576-213 170-707 541-825 620-380 255-750 408-1155 480-96 17-169 22-365 24-135 2-265 1-290-1zm12295-6954c292-301 665-611 1365-1135 234-175 470-355 525-400 284-234 553-488 712-673 221-258 337-367 445-417 29-13 54-22 56-20 8 8-115 291-218 500-133 269-262 487-473 795-286 416-476 657-614 775-167 144-391 262-671 354-577 191-887 271-1111 287l-86 6zm1745-2436c0-27 194-256 421-499 214-230 282-307 407-472 329-431 671-748 1036-962 197-115 586-291 878-397 100-36 214-82 253-102 38-20 74-39 80-41 10-4-109 138-390 464-487 566-810 890-1245 1251-406 337-654 512-883 624-157 76-224 100-339 124-76 16-218 22-218 10zm-4481-2504c-82-8-119-22-119-46 0-51 66-116 246-243 285-202 413-335 744-771 243-320 437-509 708-690 314-210 652-344 1007-400 128-20 283-35 275-27-3 3-42 32-87 65-213 158-368 352-643 807-302 499-443 675-703 876-408 316-940 476-1428 429z" transform="matrix(.1 0 0 -.1 0 1410)" fill="wheat" stroke="none" stroke-width="2" vector-effect="non-scaling-stroke"/>
</svg>
